<svg id="Camada_1" data-name="Camada 1" xmlns="http://www.w3.org/2000/svg" viewBox="0 0 243.05 357.73"><defs><style>.cls-1{fill:#5b5bd6;}.cls-2{fill:#bcbcbc;}</style></defs><title>logo</title><path class="cls-1" d="M74.09,323.9c0,15.09-8.37,26-24.09,31.67-19,6.9-41.93-3.44-48-20.87a33.92,33.92,0,0,1,14-39.59,40.19,40.19,0,0,1,48.81,5.36C70.91,306.38,74.1,314.47,74.09,323.9Z"/><path class="cls-2" d="M208.09,205.07c17.18,1.83,31.47,14.77,34.41,31.17s-5.92,32.83-21.74,40.48c-4.05,2-8.47,2.83-12.87,3.66-3.8.55-7.62,0.23-11.43,0.23q-49,0-98.08,0c-4.76-1.85-2.39-4.59-.64-6.87,5.66-7.38,11.64-14.5,17.58-21.65,11.26-13.53,22-27.47,33.32-41,3.68-4.38,7.75-6.73,13.65-6.61,13.62,0.28,27.26.07,40.89,0.11A31.25,31.25,0,0,1,208.09,205.07Z"/><path class="cls-2" d="M167.56,205.07c19.91,1.83,36.47,14.79,39.88,31.21s-6.86,32.87-25.19,40.53c-4.7,2-9.81,2.83-14.91,3.67-4.4.55-8.83,0.23-13.25,0.23-37.9,0-76.76-.45-114.65-0.46-5.52-1.85-1.81-4.12.22-6.4,6.56-7.39,13.49-14.52,20.38-21.67,13.05-13.55,25.51-27.5,38.62-41a20,20,0,0,1,15.83-6.61c15.79,0.28,31.6.07,47.39,0.11C163.78,204.66,165.74,204.24,167.56,205.07Z"/><path class="cls-1" d="M58.87,280c-10.1-.09-20.21,1.29-30.25-1.6-23.8-6.86-36.77-32.06-23-55.27,7.74-13,17.66-24.55,26.53-36.81q30.1-41.63,60.42-83.1c2.25-3.09,4.59-6.12,7-9.11a11.53,11.53,0,0,0,1.51-12.67c-2.19-4.42-6.57-6.25-11.7-6.23-17,.07-34,0.66-51-0.18C16.91,74,.6,57.86,1,36.22,1.34,20.58,15.09,5.26,32,1.3A40.69,40.69,0,0,1,41.34,0C93.48,0,145.61,0,197.75.06,216,0.1,232,11.91,236.24,29.13c3,12,.42,23.45-7.22,33.48-19.43,25.52-39.23,50.78-58.18,76.65C157.09,158,142.3,176,128.93,195.06c-2.19,3.12-5.24,5.6-6.85,9.16,1,2.08-.34,3.4-1.46,4.86-7.85,10.26-16.64,19.73-24.74,29.79-10,12.39-20.88,24-30.63,36.54C63.53,277.62,60.93,278.42,58.87,280Z"/></svg>